<svg xmlns="http://www.w3.org/2000/svg" width="1280" height="640" viewBox="0 0 1280 640" fill="none">

<defs>
  <radialGradient id="bg" cx="38%" cy="44%" r="88%">
    <stop offset="0%"  stop-color="#1a3a5a"/>
    <stop offset="55%" stop-color="#122a40"/>
    <stop offset="100%" stop-color="#0a1521"/>
  </radialGradient>
  <linearGradient id="word" x1="0" y1="0" x2="0" y2="1">
    <stop offset="0%"  stop-color="#ffffff"/>
    <stop offset="100%" stop-color="#C9DDEE"/>
  </linearGradient>
  <radialGradient id="halo" cx="50%" cy="50%" r="50%">
    <stop offset="0%"  stop-color="#4A90C2" stop-opacity="0.55"/>
    <stop offset="100%" stop-color="#4A90C2" stop-opacity="0"/>
  </radialGradient>
  <filter id="soft" x="-60%" y="-60%" width="220%" height="220%">
    <feGaussianBlur stdDeviation="6"/>
  </filter>
</defs>

<rect width="1280" height="640" fill="url(#bg)"/>
<ellipse cx="430" cy="300" rx="620" ry="430" fill="url(#halo)" opacity="0.28"/>
<g stroke="#62A1CE"><line x1="375.8" y1="321.2" x2="283.5" y2="269.6" stroke-width="1" stroke-opacity="0.11"/><line x1="375.8" y1="321.2" x2="363.5" y2="416.8" stroke-width="1" stroke-opacity="0.13"/><line x1="375.8" y1="321.2" x2="365.0" y2="230.7" stroke-width="1" stroke-opacity="0.14"/><line x1="375.8" y1="321.2" x2="288.7" y2="439.8" stroke-width="1" stroke-opacity="0.04"/><line x1="375.8" y1="321.2" x2="510.4" y2="250.5" stroke-width="1" stroke-opacity="0.04"/><line x1="397.2" y1="81.2" x2="282.7" y2="101.8" stroke-width="1" stroke-opacity="0.09"/><line x1="397.2" y1="81.2" x2="555.8" y2="86.3" stroke-width="1" stroke-opacity="0.04"/><line x1="397.2" y1="81.2" x2="474.1" y2="133.9" stroke-width="1" stroke-opacity="0.14"/><line x1="397.2" y1="81.2" x2="365.0" y2="230.7" stroke-width="1" stroke-opacity="0.04"/><line x1="282.7" y1="101.8" x2="198.3" y2="119.8" stroke-width="1" stroke-opacity="0.15"/><line x1="282.7" y1="101.8" x2="137.2" y2="58.8" stroke-width="1" stroke-opacity="0.04"/><line x1="282.7" y1="101.8" x2="365.0" y2="230.7" stroke-width="1" stroke-opacity="0.04"/><line x1="538.7" y1="352.3" x2="629.2" y2="484.2" stroke-width="1" stroke-opacity="0.04"/><line x1="538.7" y1="352.3" x2="512.8" y2="457.2" stroke-width="1" stroke-opacity="0.11"/><line x1="538.7" y1="352.3" x2="634.1" y2="248.3" stroke-width="1" stroke-opacity="0.05"/><line x1="538.7" y1="352.3" x2="510.4" y2="250.5" stroke-width="1" stroke-opacity="0.12"/><line x1="753.8" y1="480.9" x2="855.9" y2="370.6" stroke-width="1" stroke-opacity="0.04"/><line x1="753.8" y1="480.9" x2="629.2" y2="484.2" stroke-width="1" stroke-opacity="0.08"/><line x1="753.8" y1="480.9" x2="881.8" y2="490.9" stroke-width="1" stroke-opacity="0.07"/><line x1="753.8" y1="480.9" x2="696.7" y2="433.6" stroke-width="1" stroke-opacity="0.18"/><line x1="1181.1" y1="168.2" x2="1112.2" y2="303.7" stroke-width="1" stroke-opacity="0.04"/><line x1="1181.1" y1="168.2" x2="1237.5" y2="63.9" stroke-width="1" stroke-opacity="0.09"/><line x1="555.8" y1="86.3" x2="474.1" y2="133.9" stroke-width="1" stroke-opacity="0.14"/><line x1="555.8" y1="86.3" x2="697.1" y2="90.6" stroke-width="1" stroke-opacity="0.05"/><line x1="555.8" y1="86.3" x2="585.6" y2="169.2" stroke-width="1" stroke-opacity="0.15"/><line x1="198.3" y1="119.8" x2="137.2" y2="58.8" stroke-width="1" stroke-opacity="0.15"/><line x1="198.3" y1="119.8" x2="201.7" y2="254.9" stroke-width="1" stroke-opacity="0.06"/><line x1="198.3" y1="119.8" x2="60.1" y2="176.8" stroke-width="1" stroke-opacity="0.04"/><line x1="1018.4" y1="353.9" x2="855.9" y2="370.6" stroke-width="1" stroke-opacity="0.04"/><line x1="1018.4" y1="353.9" x2="1100.8" y2="464.2" stroke-width="1" stroke-opacity="0.05"/><line x1="1018.4" y1="353.9" x2="1112.2" y2="303.7" stroke-width="1" stroke-opacity="0.11"/><line x1="1018.4" y1="353.9" x2="1110.5" y2="385.6" stroke-width="1" stroke-opacity="0.13"/><line x1="1018.4" y1="353.9" x2="981.8" y2="483.6" stroke-width="1" stroke-opacity="0.06"/><line x1="1018.4" y1="353.9" x2="905.2" y2="259.1" stroke-width="1" stroke-opacity="0.04"/><line x1="283.5" y1="269.6" x2="201.7" y2="254.9" stroke-width="1" stroke-opacity="0.16"/><line x1="283.5" y1="269.6" x2="365.0" y2="230.7" stroke-width="1" stroke-opacity="0.14"/><line x1="283.5" y1="269.6" x2="135.9" y2="330.1" stroke-width="1" stroke-opacity="0.04"/><line x1="474.1" y1="133.9" x2="365.0" y2="230.7" stroke-width="1" stroke-opacity="0.04"/><line x1="474.1" y1="133.9" x2="585.6" y2="169.2" stroke-width="1" stroke-opacity="0.09"/><line x1="474.1" y1="133.9" x2="510.4" y2="250.5" stroke-width="1" stroke-opacity="0.08"/><line x1="203.8" y1="557.4" x2="294.6" y2="520.7" stroke-width="1" stroke-opacity="0.13"/><line x1="203.8" y1="557.4" x2="288.7" y2="439.8" stroke-width="1" stroke-opacity="0.04"/><line x1="203.8" y1="557.4" x2="216.6" y2="423.5" stroke-width="1" stroke-opacity="0.06"/><line x1="1159.3" y1="519.2" x2="1086.2" y2="561.7" stroke-width="1" stroke-opacity="0.16"/><line x1="1159.3" y1="519.2" x2="1100.8" y2="464.2" stroke-width="1" stroke-opacity="0.16"/><line x1="1159.3" y1="519.2" x2="1110.5" y2="385.6" stroke-width="1" stroke-opacity="0.04"/><line x1="137.2" y1="58.8" x2="60.1" y2="176.8" stroke-width="1" stroke-opacity="0.05"/><line x1="697.1" y1="90.6" x2="771.5" y2="182.4" stroke-width="1" stroke-opacity="0.09"/><line x1="697.1" y1="90.6" x2="793.7" y2="68.1" stroke-width="1" stroke-opacity="0.13"/><line x1="697.1" y1="90.6" x2="700.5" y2="199.1" stroke-width="1" stroke-opacity="0.11"/><line x1="697.1" y1="90.6" x2="585.6" y2="169.2" stroke-width="1" stroke-opacity="0.06"/><line x1="1086.2" y1="561.7" x2="1100.8" y2="464.2" stroke-width="1" stroke-opacity="0.13"/><line x1="1086.2" y1="561.7" x2="931.4" y2="540.5" stroke-width="1" stroke-opacity="0.04"/><line x1="1086.2" y1="561.7" x2="981.8" y2="483.6" stroke-width="1" stroke-opacity="0.07"/><line x1="855.9" y1="370.6" x2="881.8" y2="490.9" stroke-width="1" stroke-opacity="0.08"/><line x1="855.9" y1="370.6" x2="836.4" y2="218.9" stroke-width="1" stroke-opacity="0.04"/><line x1="855.9" y1="370.6" x2="905.2" y2="259.1" stroke-width="1" stroke-opacity="0.08"/><line x1="1100.8" y1="464.2" x2="1112.2" y2="303.7" stroke-width="1" stroke-opacity="0.04"/><line x1="1100.8" y1="464.2" x2="1110.5" y2="385.6" stroke-width="1" stroke-opacity="0.17"/><line x1="1100.8" y1="464.2" x2="981.8" y2="483.6" stroke-width="1" stroke-opacity="0.09"/><line x1="201.7" y1="254.9" x2="40.2" y2="288.0" stroke-width="1" stroke-opacity="0.04"/><line x1="201.7" y1="254.9" x2="60.1" y2="176.8" stroke-width="1" stroke-opacity="0.04"/><line x1="201.7" y1="254.9" x2="135.9" y2="330.1" stroke-width="1" stroke-opacity="0.13"/><line x1="771.5" y1="182.4" x2="793.7" y2="68.1" stroke-width="1" stroke-opacity="0.09"/><line x1="771.5" y1="182.4" x2="634.1" y2="248.3" stroke-width="1" stroke-opacity="0.04"/><line x1="771.5" y1="182.4" x2="700.5" y2="199.1" stroke-width="1" stroke-opacity="0.18"/><line x1="771.5" y1="182.4" x2="836.4" y2="218.9" stroke-width="1" stroke-opacity="0.18"/><line x1="771.5" y1="182.4" x2="905.2" y2="259.1" stroke-width="1" stroke-opacity="0.04"/><line x1="1112.2" y1="303.7" x2="1110.5" y2="385.6" stroke-width="1" stroke-opacity="0.16"/><line x1="363.5" y1="416.8" x2="512.8" y2="457.2" stroke-width="1" stroke-opacity="0.04"/><line x1="363.5" y1="416.8" x2="294.6" y2="520.7" stroke-width="1" stroke-opacity="0.08"/><line x1="363.5" y1="416.8" x2="436.8" y2="537.5" stroke-width="1" stroke-opacity="0.05"/><line x1="363.5" y1="416.8" x2="288.7" y2="439.8" stroke-width="1" stroke-opacity="0.17"/><line x1="363.5" y1="416.8" x2="216.6" y2="423.5" stroke-width="1" stroke-opacity="0.04"/><line x1="629.2" y1="484.2" x2="512.8" y2="457.2" stroke-width="1" stroke-opacity="0.09"/><line x1="629.2" y1="484.2" x2="696.7" y2="433.6" stroke-width="1" stroke-opacity="0.16"/><line x1="793.7" y1="68.1" x2="700.5" y2="199.1" stroke-width="1" stroke-opacity="0.04"/><line x1="793.7" y1="68.1" x2="836.4" y2="218.9" stroke-width="1" stroke-opacity="0.04"/><line x1="40.2" y1="288.0" x2="60.1" y2="176.8" stroke-width="1" stroke-opacity="0.10"/><line x1="40.2" y1="288.0" x2="66.0" y2="404.1" stroke-width="1" stroke-opacity="0.09"/><line x1="40.2" y1="288.0" x2="135.9" y2="330.1" stroke-width="1" stroke-opacity="0.12"/><line x1="881.8" y1="490.9" x2="931.4" y2="540.5" stroke-width="1" stroke-opacity="0.18"/><line x1="881.8" y1="490.9" x2="981.8" y2="483.6" stroke-width="1" stroke-opacity="0.13"/><line x1="512.8" y1="457.2" x2="436.8" y2="537.5" stroke-width="1" stroke-opacity="0.11"/><line x1="634.1" y1="248.3" x2="700.5" y2="199.1" stroke-width="1" stroke-opacity="0.16"/><line x1="634.1" y1="248.3" x2="585.6" y2="169.2" stroke-width="1" stroke-opacity="0.14"/><line x1="634.1" y1="248.3" x2="510.4" y2="250.5" stroke-width="1" stroke-opacity="0.08"/><line x1="294.6" y1="520.7" x2="436.8" y2="537.5" stroke-width="1" stroke-opacity="0.04"/><line x1="294.6" y1="520.7" x2="288.7" y2="439.8" stroke-width="1" stroke-opacity="0.16"/><line x1="294.6" y1="520.7" x2="216.6" y2="423.5" stroke-width="1" stroke-opacity="0.08"/><line x1="365.0" y1="230.7" x2="510.4" y2="250.5" stroke-width="1" stroke-opacity="0.04"/><line x1="931.4" y1="540.5" x2="981.8" y2="483.6" stroke-width="1" stroke-opacity="0.17"/><line x1="1110.5" y1="385.6" x2="981.8" y2="483.6" stroke-width="1" stroke-opacity="0.04"/><line x1="700.5" y1="199.1" x2="836.4" y2="218.9" stroke-width="1" stroke-opacity="0.05"/><line x1="700.5" y1="199.1" x2="585.6" y2="169.2" stroke-width="1" stroke-opacity="0.09"/><line x1="836.4" y1="218.9" x2="905.2" y2="259.1" stroke-width="1" stroke-opacity="0.17"/><line x1="288.7" y1="439.8" x2="216.6" y2="423.5" stroke-width="1" stroke-opacity="0.18"/><line x1="66.0" y1="404.1" x2="135.9" y2="330.1" stroke-width="1" stroke-opacity="0.12"/><line x1="66.0" y1="404.1" x2="216.6" y2="423.5" stroke-width="1" stroke-opacity="0.04"/><line x1="585.6" y1="169.2" x2="510.4" y2="250.5" stroke-width="1" stroke-opacity="0.11"/><line x1="135.9" y1="330.1" x2="216.6" y2="423.5" stroke-width="1" stroke-opacity="0.08"/></g>
<g><circle cx="375.8" cy="321.2" r="12.0" fill="#4A90C2" fill-opacity="0.10" filter="url(#soft)"/><circle cx="397.2" cy="81.2" r="14.4" fill="#4A90C2" fill-opacity="0.10" filter="url(#soft)"/><circle cx="282.7" cy="101.8" r="6.4" fill="#4A90C2" fill-opacity="0.10" filter="url(#soft)"/><circle cx="538.7" cy="352.3" r="12.0" fill="#4A90C2" fill-opacity="0.10" filter="url(#soft)"/><circle cx="753.8" cy="480.9" r="6.4" fill="#4A90C2" fill-opacity="0.10" filter="url(#soft)"/><circle cx="1181.1" cy="168.2" r="9.6" fill="#4A90C2" fill-opacity="0.10" filter="url(#soft)"/><circle cx="555.8" cy="86.3" r="8.0" fill="#4A90C2" fill-opacity="0.10" filter="url(#soft)"/><circle cx="198.3" cy="119.8" r="12.0" fill="#4A90C2" fill-opacity="0.10" filter="url(#soft)"/><circle cx="1018.4" cy="353.9" r="9.6" fill="#4A90C2" fill-opacity="0.10" filter="url(#soft)"/><circle cx="283.5" cy="269.6" r="12.0" fill="#4A90C2" fill-opacity="0.10" filter="url(#soft)"/><circle cx="474.1" cy="133.9" r="6.4" fill="#4A90C2" fill-opacity="0.10" filter="url(#soft)"/><circle cx="203.8" cy="557.4" r="14.4" fill="#4A90C2" fill-opacity="0.10" filter="url(#soft)"/><circle cx="1159.3" cy="519.2" r="12.0" fill="#4A90C2" fill-opacity="0.10" filter="url(#soft)"/><circle cx="137.2" cy="58.8" r="6.4" fill="#4A90C2" fill-opacity="0.10" filter="url(#soft)"/><circle cx="697.1" cy="90.6" r="6.4" fill="#4A90C2" fill-opacity="0.10" filter="url(#soft)"/><circle cx="1086.2" cy="561.7" r="6.4" fill="#4A90C2" fill-opacity="0.10" filter="url(#soft)"/><circle cx="855.9" cy="370.6" r="14.4" fill="#4A90C2" fill-opacity="0.10" filter="url(#soft)"/><circle cx="1100.8" cy="464.2" r="12.0" fill="#4A90C2" fill-opacity="0.10" filter="url(#soft)"/><circle cx="201.7" cy="254.9" r="6.4" fill="#4A90C2" fill-opacity="0.10" filter="url(#soft)"/><circle cx="771.5" cy="182.4" r="8.0" fill="#4A90C2" fill-opacity="0.10" filter="url(#soft)"/><circle cx="1112.2" cy="303.7" r="12.0" fill="#4A90C2" fill-opacity="0.10" filter="url(#soft)"/><circle cx="363.5" cy="416.8" r="14.4" fill="#4A90C2" fill-opacity="0.10" filter="url(#soft)"/><circle cx="629.2" cy="484.2" r="14.4" fill="#4A90C2" fill-opacity="0.10" filter="url(#soft)"/><circle cx="793.7" cy="68.1" r="9.6" fill="#4A90C2" fill-opacity="0.10" filter="url(#soft)"/><circle cx="40.2" cy="288.0" r="12.0" fill="#4A90C2" fill-opacity="0.10" filter="url(#soft)"/><circle cx="881.8" cy="490.9" r="14.4" fill="#4A90C2" fill-opacity="0.10" filter="url(#soft)"/><circle cx="512.8" cy="457.2" r="6.4" fill="#4A90C2" fill-opacity="0.10" filter="url(#soft)"/><circle cx="634.1" cy="248.3" r="8.0" fill="#4A90C2" fill-opacity="0.10" filter="url(#soft)"/><circle cx="294.6" cy="520.7" r="8.0" fill="#4A90C2" fill-opacity="0.10" filter="url(#soft)"/><circle cx="60.1" cy="176.8" r="9.6" fill="#4A90C2" fill-opacity="0.10" filter="url(#soft)"/><circle cx="696.7" cy="433.6" r="12.0" fill="#4A90C2" fill-opacity="0.10" filter="url(#soft)"/><circle cx="365.0" cy="230.7" r="12.0" fill="#4A90C2" fill-opacity="0.10" filter="url(#soft)"/><circle cx="931.4" cy="540.5" r="12.0" fill="#4A90C2" fill-opacity="0.10" filter="url(#soft)"/><circle cx="1110.5" cy="385.6" r="14.4" fill="#4A90C2" fill-opacity="0.10" filter="url(#soft)"/><circle cx="1237.5" cy="63.9" r="9.6" fill="#4A90C2" fill-opacity="0.10" filter="url(#soft)"/><circle cx="700.5" cy="199.1" r="12.0" fill="#4A90C2" fill-opacity="0.10" filter="url(#soft)"/><circle cx="436.8" cy="537.5" r="14.4" fill="#4A90C2" fill-opacity="0.10" filter="url(#soft)"/><circle cx="836.4" cy="218.9" r="9.6" fill="#4A90C2" fill-opacity="0.10" filter="url(#soft)"/><circle cx="288.7" cy="439.8" r="14.4" fill="#4A90C2" fill-opacity="0.10" filter="url(#soft)"/><circle cx="66.0" cy="404.1" r="14.4" fill="#4A90C2" fill-opacity="0.10" filter="url(#soft)"/><circle cx="585.6" cy="169.2" r="6.4" fill="#4A90C2" fill-opacity="0.10" filter="url(#soft)"/><circle cx="981.8" cy="483.6" r="12.0" fill="#4A90C2" fill-opacity="0.10" filter="url(#soft)"/><circle cx="135.9" cy="330.1" r="8.0" fill="#4A90C2" fill-opacity="0.10" filter="url(#soft)"/><circle cx="510.4" cy="250.5" r="14.4" fill="#4A90C2" fill-opacity="0.10" filter="url(#soft)"/><circle cx="216.6" cy="423.5" r="14.4" fill="#4A90C2" fill-opacity="0.10" filter="url(#soft)"/><circle cx="905.2" cy="259.1" r="14.4" fill="#4A90C2" fill-opacity="0.10" filter="url(#soft)"/><circle cx="375.8" cy="321.2" r="3.0" fill="#99C2E0" fill-opacity="0.95"/><circle cx="397.2" cy="81.2" r="3.6" fill="#99C2E0" fill-opacity="0.95"/><circle cx="282.7" cy="101.8" r="1.6" fill="#C9DDEE" fill-opacity="0.95"/><circle cx="538.7" cy="352.3" r="3.0" fill="#99C2E0" fill-opacity="0.95"/><circle cx="753.8" cy="480.9" r="1.6" fill="#C9DDEE" fill-opacity="0.95"/><circle cx="1181.1" cy="168.2" r="2.4" fill="#99C2E0" fill-opacity="0.95"/><circle cx="555.8" cy="86.3" r="2.0" fill="#C9DDEE" fill-opacity="0.95"/><circle cx="198.3" cy="119.8" r="3.0" fill="#99C2E0" fill-opacity="0.95"/><circle cx="1018.4" cy="353.9" r="2.4" fill="#99C2E0" fill-opacity="0.95"/><circle cx="283.5" cy="269.6" r="3.0" fill="#99C2E0" fill-opacity="0.95"/><circle cx="474.1" cy="133.9" r="1.6" fill="#C9DDEE" fill-opacity="0.95"/><circle cx="203.8" cy="557.4" r="3.6" fill="#99C2E0" fill-opacity="0.95"/><circle cx="1159.3" cy="519.2" r="3.0" fill="#99C2E0" fill-opacity="0.95"/><circle cx="137.2" cy="58.8" r="1.6" fill="#C9DDEE" fill-opacity="0.95"/><circle cx="697.1" cy="90.6" r="1.6" fill="#C9DDEE" fill-opacity="0.95"/><circle cx="1086.2" cy="561.7" r="1.6" fill="#C9DDEE" fill-opacity="0.95"/><circle cx="855.9" cy="370.6" r="3.6" fill="#99C2E0" fill-opacity="0.95"/><circle cx="1100.8" cy="464.2" r="3.0" fill="#99C2E0" fill-opacity="0.95"/><circle cx="201.7" cy="254.9" r="1.6" fill="#C9DDEE" fill-opacity="0.95"/><circle cx="771.5" cy="182.4" r="2.0" fill="#C9DDEE" fill-opacity="0.95"/><circle cx="1112.2" cy="303.7" r="3.0" fill="#99C2E0" fill-opacity="0.95"/><circle cx="363.5" cy="416.8" r="3.6" fill="#99C2E0" fill-opacity="0.95"/><circle cx="629.2" cy="484.2" r="3.6" fill="#99C2E0" fill-opacity="0.95"/><circle cx="793.7" cy="68.1" r="2.4" fill="#99C2E0" fill-opacity="0.95"/><circle cx="40.2" cy="288.0" r="3.0" fill="#99C2E0" fill-opacity="0.95"/><circle cx="881.8" cy="490.9" r="3.6" fill="#99C2E0" fill-opacity="0.95"/><circle cx="512.8" cy="457.2" r="1.6" fill="#C9DDEE" fill-opacity="0.95"/><circle cx="634.1" cy="248.3" r="2.0" fill="#C9DDEE" fill-opacity="0.95"/><circle cx="294.6" cy="520.7" r="2.0" fill="#C9DDEE" fill-opacity="0.95"/><circle cx="60.1" cy="176.8" r="2.4" fill="#99C2E0" fill-opacity="0.95"/><circle cx="696.7" cy="433.6" r="3.0" fill="#99C2E0" fill-opacity="0.95"/><circle cx="365.0" cy="230.7" r="3.0" fill="#99C2E0" fill-opacity="0.95"/><circle cx="931.4" cy="540.5" r="3.0" fill="#99C2E0" fill-opacity="0.95"/><circle cx="1110.5" cy="385.6" r="3.6" fill="#99C2E0" fill-opacity="0.95"/><circle cx="1237.5" cy="63.9" r="2.4" fill="#99C2E0" fill-opacity="0.95"/><circle cx="700.5" cy="199.1" r="3.0" fill="#99C2E0" fill-opacity="0.95"/><circle cx="436.8" cy="537.5" r="3.6" fill="#99C2E0" fill-opacity="0.95"/><circle cx="836.4" cy="218.9" r="2.4" fill="#99C2E0" fill-opacity="0.95"/><circle cx="288.7" cy="439.8" r="3.6" fill="#99C2E0" fill-opacity="0.95"/><circle cx="66.0" cy="404.1" r="3.6" fill="#99C2E0" fill-opacity="0.95"/><circle cx="585.6" cy="169.2" r="1.6" fill="#C9DDEE" fill-opacity="0.95"/><circle cx="981.8" cy="483.6" r="3.0" fill="#99C2E0" fill-opacity="0.95"/><circle cx="135.9" cy="330.1" r="2.0" fill="#C9DDEE" fill-opacity="0.95"/><circle cx="510.4" cy="250.5" r="3.6" fill="#99C2E0" fill-opacity="0.95"/><circle cx="216.6" cy="423.5" r="3.6" fill="#99C2E0" fill-opacity="0.95"/><circle cx="905.2" cy="259.1" r="3.6" fill="#99C2E0" fill-opacity="0.95"/></g>
<circle cx="307.1" cy="320.0" r="98" fill="url(#halo)" opacity="0.75"/>
<g transform="translate(232.00 259.00) scale(1.3407)"><path fill-rule="evenodd" clip-rule="evenodd" d="M71.3682 21.7098L54.042 39.036C50.6567 42.4213 50.6568 47.9099 54.042 51.2952L71.3727 68.6259L52.8321 87.1665C48.6005 91.3981 41.7397 91.3981 37.5081 87.1665L3.17369 52.8321C-1.05789 48.6005 -1.0579 41.7397 3.17369 37.5081L37.5081 3.17369C41.7397 -1.0579 48.6005 -1.05789 52.8321 3.17369L71.3682 21.7098Z" fill="#75B8E2"/><path d="M75.5711 72.8243C78.9563 76.2096 84.445 76.2096 87.8302 72.8243L109.359 51.2952C112.745 47.9099 112.745 42.4213 109.359 39.036L87.8302 17.507C84.445 14.1218 78.9563 14.1218 75.5711 17.507L71.3682 21.7098L88.6989 39.0405C92.0842 42.4258 92.0842 47.9144 88.6989 51.2997L71.3727 68.6259L75.5711 72.8243Z" fill="#3F6A86"/></g>
<text x="434" y="324" font-family="Sora" font-weight="800" font-size="142" letter-spacing="2" fill="url(#word)" dominant-baseline="middle">AGENTS</text>
<text x="439" y="396" font-family="Sora" font-weight="600" font-size="23" letter-spacing="9.5" fill="#99C2E0" fill-opacity="0.9">AGENT WORKFORCE</text>
</svg>